#N canvas -1080 108 993 599 12;
#X obj 58 149 mtof;
#X obj 89 245 phasor~;
#X obj 79 332 *~;
#X obj 57 175 t b f;
#X obj 219 125 *;
#X obj 222 74 hsl 162 19 0.02 10 0 0 empty empty empty -2 -10 0 12 #fcfcfc #000000 #000000 0 1;
#X obj 219 98 t b f;
#X obj 219 176 line~;
#X obj 219 151 pack f 50;
#X obj 78 358 hip~ 40;
#X obj 304 130 vsl 19 62 1 8 0 0 empty empty empty 0 -9 0 12 #fcfcfc #000000 #000000 0 1;
#X obj 82 75 inlet note in;
#X floatatom 178 98 5 0 0 0 - - - 0;
#X floatatom 317 197 5 0 0 0 - - - 0;
#X obj 89 197 pack f 10;
#X obj 89 221 line~;
#X obj 80 282 bob~;
#X obj 303 245 line~;
#X obj 303 220 pack f 50;
#X obj 96 305 util/asdenv 10 100 1000;
#X msg 219 51 2;
#X obj 219 26 loadbang;
#X obj 346 118 loadbang;
#X msg 346 143 3;
#X obj 79 386 outlet~;
#X floatatom 159 151 5 0 0 0 - - - 0;
#X connect 0 0 3 0;
#X connect 0 0 4 0;
#X connect 1 0 16 0;
#X connect 2 0 9 0;
#X connect 3 0 19 0;
#X connect 3 1 14 0;
#X connect 4 0 8 0;
#X connect 5 0 6 0;
#X connect 5 0 12 0;
#X connect 6 0 4 0;
#X connect 6 1 4 1;
#X connect 7 0 16 1;
#X connect 8 0 7 0;
#X connect 9 0 24 0;
#X connect 10 0 13 0;
#X connect 10 0 18 0;
#X connect 11 0 0 0;
#X connect 11 0 25 0;
#X connect 14 0 15 0;
#X connect 15 0 1 0;
#X connect 16 0 2 0;
#X connect 17 0 16 2;
#X connect 18 0 17 0;
#X connect 19 0 2 1;
#X connect 20 0 5 0;
#X connect 21 0 20 0;
#X connect 22 0 23 0;
#X connect 23 0 10 0;
