#N canvas 510 138 585 718 12;
#X obj 161 38 tgl 19 0 empty empty empty 0 -10 0 12 #fcfcfc #000000 #000000 0 1;
#X floatatom 109 113 5 0 0 0 - - - 0;
#X obj 70 23 notein;
#X obj 70 47 stripnote;
#X floatatom 66 84 5 0 0 0 - - - 0;
#X obj 230 279 rev2~ 100 90 3000 20;
#X obj 205 424 ../util/generalOutput;
#X obj 156 64 ../util/keytester;
#X obj 364 60 loadbang;
#X msg 364 93 \; pd dsp 1;
#X obj 161 189 r sawMelloNoteIn;
#X obj 156 226 sawMelloVoice;
#X obj 104 160 inlet;
#X obj 89 214 print;
#X connect 0 0 7 0;
#X connect 1 0 4 0;
#X connect 2 0 3 0;
#X connect 2 1 3 1;
#X connect 3 0 4 0;
#X connect 4 0 11 0;
#X connect 5 2 6 0;
#X connect 5 3 6 1;
#X connect 7 0 1 0;
#X connect 8 0 9 0;
#X connect 10 0 11 0;
#X connect 11 0 5 0;
#X connect 11 0 6 2;
#X connect 12 0 11 0;
#X connect 12 0 13 0;
