#N canvas 209 313 598 411 12;
#X obj 68 31 inlet trigger;
#X obj 68 79 f \$1;
#X obj 68 151 vline~;
#X obj 67 205 outlet~;
#X obj 113 80 f \$2;
#X obj 68 103 pack f f f;
#X obj 68 55 t b b b;
#X obj 152 80 f \$3;
#X msg 68 127 0 1 0 \, 1 \$1 0 \, 1 \$2 41 \, 0 \$3 \$2;
#X obj 67 180 pow~ 2;
#X connect 0 0 6 0;
#X connect 1 0 5 0;
#X connect 2 0 9 0;
#X connect 4 0 5 1;
#X connect 5 0 8 0;
#X connect 6 0 1 0;
#X connect 6 1 4 0;
#X connect 6 2 7 0;
#X connect 7 0 5 2;
#X connect 8 0 2 0;
#X connect 9 0 3 0;
