#N canvas 949 148 798 666 12;
#X obj 362 398 dac~;
#X obj 320 197 inlet~ r;
#X obj 252 197 inlet~ l;
#X obj 368 139 inlet~ mono;
#X obj 253 231 *~;
#X obj 320 231 *~;
#X obj 494 106 route volume pan;
#X obj 494 79 inlet messages;
#X obj 315 336 *~;
#X obj 340 284 -~ 0.25;
#X obj 340 308 cos~;
#X obj 452 301 cos~;
#X obj 433 331 *~;
#X obj 460 104 vsl 19 50 0 1 0 0 empty empty empty 0 -9 0 12 #fcfcfc #000000 #000000 0 1;
#X obj 548 149 hsl 162 19 0 1 0 0 empty empty empty -2 -10 0 12 #fcfcfc #000000 #000000 0 1;
#X obj 421 251 -~ 0.25;
#X obj 421 227 *~ 0.25;
#X obj 464 169 sig~;
#X obj 546 177 sig~;
#X obj 463 193 lop~ 10;
#X obj 545 202 lop~ 10;
#X floatatom 504 138 5 0 0 0 - - - 0;
#X msg 456 68 1;
#X obj 631 47 loadbang;
#X msg 631 71 0.5;
#X obj 293 387 env~;
#X floatatom 288 423 5 0 0 0 - - - 0;
#X obj 108 121 vu 15 160 empty empty -1 -8 0 12 #404040 #000000 1 0;
#N canvas 329 161 625 417 vu 0;
#X obj 59 129 env~ 1024;
#X obj 161 111 abs~;
#X obj 161 213 snapshot~;
#X obj 161 256 rmstodb;
#X obj 161 21 inlet~;
#X obj 161 288 - 100;
#X obj 59 287 - 100;
#X obj 59 361 outlet;
#X obj 161 361 outlet;
#X text 344 307 Check the help file of env~ and slop~ for more details., f 31;
#X obj 239 89 expr 1000 / $f1;
#X floatatom 239 117 5 0 0 0 - - - 0;
#X obj 161 146 slop~ 0 0 0 0 1e+09;
#X obj 239 18 inlet;
#X floatatom 239 57 5 0 0 0 - - - 0;
#X text 359 89 convert to hz;
#X text 282 118 hz;
#X text 284 57 peak decay time in ms;
#X obj 59 171 t f b;
#X text 345 132 The env~ object is dedicated to RMS analysis. Its output is in dB (0-100 range \, pd style) but needs to be converted to dBFS (and we do that by simply subtracting 100)., f 31;
#X text 345 225 The slop~ object is used here for peak detection. We need to convert the output to dB with rmstodb and also subtract by 100 to convert it to dBFS., f 31;
#X connect 0 0 18 0;
#X connect 1 0 12 0;
#X connect 2 0 3 0;
#X connect 3 0 5 0;
#X connect 4 0 0 0;
#X connect 4 0 1 0;
#X connect 5 0 8 0;
#X connect 6 0 7 0;
#X connect 10 0 11 0;
#X connect 11 0 12 3;
#X connect 12 0 2 0;
#X connect 13 0 14 0;
#X connect 14 0 10 0;
#X connect 18 0 6 0;
#X connect 18 1 2 0;
#X restore 92 59 pd vu;
#X obj 152 121 vu 15 160 empty empty -1 -8 0 12 #404040 #000000 1 0;
#N canvas 329 161 625 417 vu 0;
#X obj 59 129 env~ 1024;
#X obj 161 111 abs~;
#X obj 161 213 snapshot~;
#X obj 161 256 rmstodb;
#X obj 161 21 inlet~;
#X obj 161 288 - 100;
#X obj 59 287 - 100;
#X obj 59 361 outlet;
#X obj 161 361 outlet;
#X text 344 307 Check the help file of env~ and slop~ for more details., f 31;
#X obj 239 89 expr 1000 / $f1;
#X floatatom 239 117 5 0 0 0 - - - 0;
#X obj 161 146 slop~ 0 0 0 0 1e+09;
#X obj 239 18 inlet;
#X floatatom 239 57 5 0 0 0 - - - 0;
#X text 359 89 convert to hz;
#X text 282 118 hz;
#X text 284 57 peak decay time in ms;
#X obj 59 171 t f b;
#X text 345 132 The env~ object is dedicated to RMS analysis. Its output is in dB (0-100 range \, pd style) but needs to be converted to dBFS (and we do that by simply subtracting 100)., f 31;
#X text 345 225 The slop~ object is used here for peak detection. We need to convert the output to dB with rmstodb and also subtract by 100 to convert it to dBFS., f 31;
#X connect 0 0 18 0;
#X connect 1 0 12 0;
#X connect 2 0 3 0;
#X connect 3 0 5 0;
#X connect 4 0 0 0;
#X connect 4 0 1 0;
#X connect 5 0 8 0;
#X connect 6 0 7 0;
#X connect 10 0 11 0;
#X connect 11 0 12 3;
#X connect 12 0 2 0;
#X connect 13 0 14 0;
#X connect 14 0 10 0;
#X connect 18 0 6 0;
#X connect 18 1 2 0;
#X restore 136 59 pd vu;
#X connect 1 0 5 0;
#X connect 2 0 4 0;
#X connect 3 0 4 0;
#X connect 3 0 5 0;
#X connect 4 0 8 0;
#X connect 5 0 12 0;
#X connect 6 0 17 0;
#X connect 6 0 21 0;
#X connect 6 1 18 0;
#X connect 7 0 6 0;
#X connect 8 0 0 0;
#X connect 8 0 25 0;
#X connect 8 0 28 0;
#X connect 9 0 10 0;
#X connect 10 0 8 1;
#X connect 11 0 12 1;
#X connect 12 0 0 1;
#X connect 12 0 30 0;
#X connect 13 0 17 0;
#X connect 14 0 18 0;
#X connect 15 0 9 0;
#X connect 15 0 11 0;
#X connect 16 0 15 0;
#X connect 17 0 19 0;
#X connect 18 0 20 0;
#X connect 19 0 5 1;
#X connect 19 0 4 1;
#X connect 20 0 16 0;
#X connect 22 0 13 0;
#X connect 23 0 24 0;
#X connect 23 0 22 0;
#X connect 24 0 14 0;
#X connect 25 0 26 0;
#X connect 28 0 27 0;
#X connect 28 1 27 1;
#X connect 30 0 29 0;
#X connect 30 1 29 1;
#X coords 0 -1 1 1 85 200 1 100 100;
