#N canvas 949 148 572 456 12;
#X obj 172 363 dac~;
#X obj 130 162 inlet~ r;
#X obj 62 162 inlet~ l;
#X obj 178 104 inlet~ mono;
#X obj 63 196 *~;
#X obj 130 196 *~;
#X obj 304 71 route volume pan;
#X obj 304 44 inlet messages;
#X obj 125 301 *~;
#X obj 150 249 -~ 0.25;
#X obj 150 273 cos~;
#X obj 262 266 cos~;
#X obj 243 296 *~;
#X obj 270 69 vsl 19 50 0 1 0 0 empty empty empty 0 -9 0 12 #fcfcfc #000000 #000000 0 1;
#X obj 358 114 hsl 162 19 0 1 0 0 empty empty empty -2 -10 0 12 #fcfcfc #000000 #000000 0 1;
#X obj 231 216 -~ 0.25;
#X obj 231 192 *~ 0.25;
#X obj 274 134 sig~;
#X obj 356 142 sig~;
#X obj 273 158 lop~ 10;
#X obj 355 167 lop~ 10;
#X floatatom 314 103 5 0 0 0 - - - 0;
#X msg 266 33 1;
#X obj 441 12 loadbang;
#X msg 441 36 0.5;
#X connect 1 0 5 0;
#X connect 2 0 4 0;
#X connect 3 0 4 0;
#X connect 3 0 5 0;
#X connect 4 0 8 0;
#X connect 5 0 12 0;
#X connect 6 0 17 0;
#X connect 6 0 21 0;
#X connect 6 1 18 0;
#X connect 7 0 6 0;
#X connect 8 0 0 0;
#X connect 9 0 10 0;
#X connect 10 0 8 1;
#X connect 11 0 12 1;
#X connect 12 0 0 1;
#X connect 13 0 17 0;
#X connect 14 0 18 0;
#X connect 15 0 9 0;
#X connect 15 0 11 0;
#X connect 16 0 15 0;
#X connect 17 0 19 0;
#X connect 18 0 20 0;
#X connect 19 0 5 1;
#X connect 19 0 4 1;
#X connect 20 0 16 0;
#X connect 22 0 13 0;
#X connect 23 0 24 0;
#X connect 23 0 22 0;
#X connect 24 0 14 0;
