#N canvas 559 324 753 513 12;
#X obj 171 376 ../generalOutput;
#N canvas 0 50 450 250 (subpatch) 0;
#X array arrayL 1.764e+06 float 2;
#X coords 0 -1 1.764e+06 1 200 40 1 0 0;
#X restore 232 21 graph;
#X obj 116 114 phasor~;
#X obj 136 216 *~;
#X obj 277 169 soundfiler;
#N canvas 0 50 450 250 (subpatch) 0;
#X array arrayR 1.764e+06 float 2;
#X coords 0 -1 1.764e+06 1 200 40 1 0 0;
#X restore 235 80 graph;
#X floatatom 277 196 0 0 0 0 - - - 0;
#X msg 287 351 volume \$1;
#X obj 290 283 vsl 19 60 0 1 0 0 empty empty empty 0 -9 0 12 #fcfcfc #000000 #000000 0 1;
#X obj 415 289 vsl 19 60 0 1 0 0 empty empty empty 0 -9 0 12 #fcfcfc #000000 #000000 0 1;
#X msg 412 359 pan \$1;
#X obj 116 30 t b f;
#X obj 116 79 /;
#X obj 51 205 env~;
#X obj 51 229 dbtorms;
#X floatatom 51 253 0 0 0 0 - - - 0;
#X obj 46 99 env~;
#X obj 46 123 dbtorms;
#X floatatom 46 147 5 0 0 0 - - - 0;
#X floatatom 159 96 0 0 0 0 - - - 0;
#X floatatom 45 36 5 0 0 0 - - - 0;
#X obj 51 331 env~;
#X obj 51 355 dbtorms;
#X floatatom 51 379 0 0 0 0 - - - 0;
#X msg 163 12 44100;
#X obj 116 55 1;
#X obj 55 175 hsl 162 19 0 1 0 0 empty empty empty -2 -10 0 12 #fcfcfc #000000 #000000 0 1;
#X obj 245 166 bng 19 250 50 0 empty empty empty 0 -10 0 12 #fcfcfc #000000 #000000;
#X obj 277 221 / 44100;
#X obj 491 275 bng 19 250 50 0 empty empty empty 0 -10 0 12 #fcfcfc #000000 #000000;
#X obj 487 331 line;
#X obj 510 248 delay 2000;
#X obj 510 224 loadbang;
#X msg 487 307 0 \, 0.3 4000;
#X msg 418 256 0.5;
#X obj 598 216 r backgroundEnable1;
#X obj 598 243 select 0 1;
#X msg 631 271 0.3 2000;
#X msg 598 301 0 2000;
#X msg 277 142 read -resize background1-v1-loop.wav arrayL arrayR;
#X obj 35 291 tabread4~ arrayL;
#X obj 174 255 tabread4~ arrayR;
#X connect 2 0 16 0;
#X connect 2 0 3 0;
#X connect 3 0 13 0;
#X connect 3 0 40 0;
#X connect 3 0 41 0;
#X connect 4 0 6 0;
#X connect 4 0 3 1;
#X connect 6 0 28 0;
#X connect 7 0 0 3;
#X connect 8 0 7 0;
#X connect 9 0 10 0;
#X connect 10 0 0 3;
#X connect 11 0 25 0;
#X connect 11 1 12 1;
#X connect 12 0 2 0;
#X connect 12 0 19 0;
#X connect 13 0 14 0;
#X connect 14 0 15 0;
#X connect 16 0 17 0;
#X connect 17 0 18 0;
#X connect 18 0 26 0;
#X connect 20 0 2 0;
#X connect 21 0 22 0;
#X connect 22 0 23 0;
#X connect 24 0 11 0;
#X connect 25 0 12 0;
#X connect 27 0 6 0;
#X connect 28 0 11 0;
#X connect 29 0 33 0;
#X connect 30 0 8 0;
#X connect 31 0 29 0;
#X connect 32 0 31 0;
#X connect 32 0 39 0;
#X connect 32 0 34 0;
#X connect 33 0 30 0;
#X connect 34 0 9 0;
#X connect 35 0 36 0;
#X connect 36 0 38 0;
#X connect 36 1 37 0;
#X connect 37 0 30 0;
#X connect 38 0 30 0;
#X connect 39 0 4 0;
#X connect 40 0 0 0;
#X connect 40 0 21 0;
#X connect 41 0 0 1;
