#N canvas 261 198 766 422 12;
#X obj 325 308 dac~;
#N canvas 936 215 372 466 amp 0;
#X obj 75 243 inlet~;
#X obj 200 267 r volume;
#X obj 200 292 pack f 1;
#X obj 200 317 line~;
#X obj 142 349 *~;
#X obj 56 349 *~;
#X obj 18 192 pack f 1;
#X obj 18 217 line~;
#X obj 18 167 r pan;
#X obj 18 242 *~ -1;
#X obj 18 267 +~ 1;
#X obj 142 324 *~;
#X obj 56 324 *~;
#X obj 142 374 outlet~;
#X obj 56 374 outlet~;
#X obj 102 162 route pan volume;
#X obj 102 137 inlet;
#X obj 80 46 vsl 19 50 0 1 0 0 empty empty empty 0 -9 0 12 #fcfcfc #000000 #000000 0 1;
#X msg 80 105 volume \$1;
#X obj 168 69 hsl 162 19 0 1 0 1 empty empty empty -2 -10 0 12 #fcfcfc #000000 #000000 8050 1;
#X msg 165 94 pan \$1;
#X msg 165 44 0.5;
#X connect 0 0 11 0;
#X connect 0 0 12 0;
#X connect 1 0 2 0;
#X connect 2 0 3 0;
#X connect 3 0 4 1;
#X connect 3 0 5 1;
#X connect 4 0 13 0;
#X connect 5 0 14 0;
#X connect 6 0 7 0;
#X connect 7 0 9 0;
#X connect 7 0 11 1;
#X connect 8 0 6 0;
#X connect 9 0 10 0;
#X connect 10 0 12 1;
#X connect 11 0 4 0;
#X connect 12 0 5 0;
#X connect 15 0 6 0;
#X connect 15 1 2 0;
#X connect 16 0 15 0;
#X connect 17 0 18 0;
#X connect 18 0 15 0;
#X connect 19 0 20 0;
#X connect 20 0 15 0;
#X connect 21 0 19 0;
#X restore 325 278 pd amp;
#X obj 502 132 vsl 19 50 0 1 0 0 empty empty empty 0 -9 0 12 #fcfcfc #000000 #000000 0 1;
#X msg 502 196 volume \$1;
#X obj 596 201 hsl 162 19 0 1 0 1 empty empty empty -2 -10 0 12 #fcfcfc #000000 #000000 8050 1;
#X msg 593 231 pan \$1;
#X msg 593 171 0.5;
#X obj 116 185 bng 19 250 50 0 empty empty empty 0 -10 0 12 #fcfcfc #000000 #000000;
#X obj 568 51 loadbang;
#X msg 502 100 1;
#X obj 429 59 metro 1000;
#X obj 440 20 bng 19 250 50 0 empty empty empty 0 -10 0 12 #fcfcfc #000000 #000000;
#X obj 116 159 receive click1;
#N canvas 888 150 330 308 noiseClick 0;
#X obj 36 75 noise~;
#X obj 105 70 inlet;
#X obj 36 153 *~, f 4;
#X obj 36 207 outlet~;
#N canvas 401 508 645 420 ad-envelope 0;
#X obj 168 277 line~;
#X obj 201 252 pack f f;
#X obj 201 227 f 1;
#X obj 137 114 t b f b;
#X obj 145 196 f 10;
#X obj 145 172 bng 19 250 50 0 empty empty empty 0 -10 0 12 #fcfcfc #000000 #000000;
#X obj 248 144 bng 19 250 50 0 empty empty empty 0 -10 0 12 #fcfcfc #000000 #000000;
#X obj 85 220 pack f f;
#X obj 85 196 f 0;
#X obj 147 27 inlet;
#X obj 137 90 f 1;
#X obj 224 114 loadbang;
#X obj 226 27 inlet;
#X obj 167 349 outlet~;
#X obj 224 90 route decay attack;
#X obj 60 27 r velocity;
#X obj 284 27 r attack;
#X msg 284 51 attack \$1;
#X obj 373 26 r decay;
#X msg 372 54 decay \$1;
#X obj 168 312 pow~ 3;
#X obj 432 259 r slope;
#X obj 248 168 f 2, f 4;
#X obj 85 172 delay 2;
#X connect 0 0 20 0;
#X connect 1 0 0 0;
#X connect 2 0 1 0;
#X connect 3 0 23 0;
#X connect 3 1 2 0;
#X connect 4 0 7 1;
#X connect 5 0 4 0;
#X connect 6 0 22 0;
#X connect 7 0 0 0;
#X connect 8 0 7 0;
#X connect 9 0 10 0;
#X connect 10 0 3 0;
#X connect 11 0 6 0;
#X connect 11 0 5 0;
#X connect 12 0 14 0;
#X connect 14 0 4 0;
#X connect 14 1 22 0;
#X connect 15 0 10 0;
#X connect 16 0 17 0;
#X connect 17 0 14 0;
#X connect 18 0 19 0;
#X connect 19 0 14 0;
#X connect 20 0 13 0;
#X connect 21 0 20 1;
#X connect 22 0 1 1;
#X connect 22 0 23 1;
#X connect 23 0 8 0;
#X restore 64 127 pd ad-envelope;
#X msg 176 81 attack 100;
#X connect 0 0 2 0;
#X connect 1 0 4 0;
#X connect 2 0 3 0;
#X connect 4 0 2 1;
#X connect 5 0 4 1;
#X restore 116 210 pd noiseClick;
#X obj 234 185 bng 19 250 50 0 empty empty empty 0 -10 0 12 #fcfcfc #000000 #000000;
#N canvas 1158 149 330 308 sawClick 0;
#X obj 128 76 inlet;
#X obj 36 153 *~, f 4;
#X obj 34 218 outlet~;
#N canvas 401 508 645 420 ad-envelope 0;
#X obj 168 277 line~;
#X obj 201 252 pack f f;
#X obj 201 227 f 1;
#X obj 137 114 t b f b;
#X obj 145 196 f 10;
#X obj 145 172 bng 19 250 50 0 empty empty empty 0 -10 0 12 #fcfcfc #000000 #000000;
#X obj 248 144 bng 19 250 50 0 empty empty empty 0 -10 0 12 #fcfcfc #000000 #000000;
#X obj 85 220 pack f f;
#X obj 85 196 f 0;
#X obj 147 27 inlet;
#X obj 137 90 f 1;
#X obj 224 114 loadbang;
#X obj 226 27 inlet;
#X obj 167 349 outlet~;
#X obj 224 90 route decay attack;
#X obj 60 27 r velocity;
#X obj 284 27 r attack;
#X msg 284 51 attack \$1;
#X obj 373 26 r decay;
#X msg 372 54 decay \$1;
#X obj 168 312 pow~ 3;
#X obj 432 259 r slope;
#X obj 248 168 f 2, f 4;
#X obj 85 172 delay 2;
#X connect 0 0 20 0;
#X connect 1 0 0 0;
#X connect 2 0 1 0;
#X connect 3 0 23 0;
#X connect 3 1 2 0;
#X connect 4 0 7 1;
#X connect 5 0 4 0;
#X connect 6 0 22 0;
#X connect 7 0 0 0;
#X connect 8 0 7 0;
#X connect 9 0 10 0;
#X connect 10 0 3 0;
#X connect 11 0 6 0;
#X connect 11 0 5 0;
#X connect 12 0 14 0;
#X connect 14 0 4 0;
#X connect 14 1 22 0;
#X connect 15 0 10 0;
#X connect 16 0 17 0;
#X connect 17 0 14 0;
#X connect 18 0 19 0;
#X connect 19 0 14 0;
#X connect 20 0 13 0;
#X connect 21 0 20 1;
#X connect 22 0 1 1;
#X connect 22 0 23 1;
#X connect 23 0 8 0;
#X restore 64 127 pd ad-envelope;
#X msg 176 81 attack 100;
#X obj 36 75 phasor~ 880;
#X obj 36 181 hip~ 500;
#X obj 183 183 util/adenv 1 10;
#X connect 0 0 7 0;
#X connect 1 0 6 0;
#X connect 3 0 1 1;
#X connect 4 0 3 1;
#X connect 5 0 1 0;
#X connect 6 0 2 0;
#X connect 7 0 1 1;
#X restore 234 210 pd sawClick;
#X obj 234 159 receive click2;
#X obj 353 184 bng 19 250 50 0 empty empty empty 0 -10 0 12 #fcfcfc #000000 #000000;
#X obj 353 158 receive bellalarm;
#N canvas 948 88 702 487 fmBell 0;
#X obj 199 285 inlet;
#X obj 120 356 *~, f 4;
#X obj 118 421 outlet~;
#X obj 120 384 hip~ 500;
#X obj 256 307 bng 19 250 50 0 empty empty empty 0 -10 0 12 #fcfcfc #000000 #000000;
#X obj 257 283 metro 3000;
#X obj 257 254 tgl 19 0 empty empty empty 0 -10 0 12 #fcfcfc #000000 #000000 0 1;
#X obj 39 95 mtof;
#X obj 39 119 sig~;
#X obj 39 219 +~;
#X obj 39 243 osc~;
#X obj 140 140 *~;
#X obj 140 164 osc~;
#X obj 140 188 *~;
#X floatatom 38 60 5 0 0 0 - - - 0;
#X floatatom 158 113 5 0 0 0 - - - 0;
#X floatatom 182 168 5 0 0 0 - - - 0;
#X text 134 56 thanks for the tips! https://www.rebeltech.org/2016/12/21/owl-pure-data-tutorial-4-fm-synthesis/;
#X obj 112 306 *~ 0.75;
#X obj 199 331 util/adenv 3 2000;
#X connect 0 0 19 0;
#X connect 1 0 3 0;
#X connect 3 0 2 0;
#X connect 4 0 19 0;
#X connect 5 0 4 0;
#X connect 6 0 5 0;
#X connect 7 0 8 0;
#X connect 8 0 9 0;
#X connect 8 0 11 0;
#X connect 9 0 10 0;
#X connect 10 0 18 0;
#X connect 11 0 12 0;
#X connect 12 0 13 0;
#X connect 13 0 9 1;
#X connect 14 0 7 0;
#X connect 15 0 11 1;
#X connect 16 0 13 1;
#X connect 18 0 1 0;
#X connect 19 0 1 1;
#X restore 353 209 pd fmBell;
#X obj 544 104 inlet volume;
#X obj 642 103 inlet pan;
#X connect 1 0 0 0;
#X connect 1 1 0 1;
#X connect 2 0 3 0;
#X connect 3 0 1 1;
#X connect 4 0 5 0;
#X connect 5 0 1 1;
#X connect 6 0 4 0;
#X connect 7 0 13 0;
#X connect 8 0 9 0;
#X connect 8 0 6 0;
#X connect 8 0 10 0;
#X connect 9 0 2 0;
#X connect 11 0 10 0;
#X connect 12 0 7 0;
#X connect 13 0 1 0;
#X connect 14 0 15 0;
#X connect 15 0 1 0;
#X connect 16 0 14 0;
#X connect 17 0 19 0;
#X connect 18 0 17 0;
#X connect 19 0 1 0;
#X connect 20 0 2 0;
#X connect 21 0 4 0;
