#N canvas 401 155 450 300 12;
#X obj 134 256 dac~;
#N canvas 936 215 372 466 amp 0;
#X obj 75 243 inlet~;
#X obj 200 267 r volume;
#X obj 200 292 pack f 1;
#X obj 200 317 line~;
#X obj 142 349 *~;
#X obj 56 349 *~;
#X obj 18 192 pack f 1;
#X obj 18 217 line~;
#X obj 18 167 r pan;
#X obj 18 242 *~ -1;
#X obj 18 267 +~ 1;
#X obj 142 324 *~;
#X obj 56 324 *~;
#X obj 142 374 outlet~;
#X obj 56 374 outlet~;
#X obj 102 162 route pan volume;
#X obj 102 137 inlet;
#X obj 80 46 vsl 19 50 0 1 0 0 empty empty empty 0 -9 0 12 #fcfcfc #000000 #000000 0 1;
#X msg 80 105 volume \$1;
#X obj 168 69 hsl 162 19 0 1 0 1 empty empty empty -2 -10 0 12 #fcfcfc #000000 #000000 8050 1;
#X msg 165 94 pan \$1;
#X msg 165 44 0.5;
#X connect 0 0 11 0;
#X connect 0 0 12 0;
#X connect 1 0 2 0;
#X connect 2 0 3 0;
#X connect 3 0 4 1;
#X connect 3 0 5 1;
#X connect 4 0 13 0;
#X connect 5 0 14 0;
#X connect 6 0 7 0;
#X connect 7 0 9 0;
#X connect 7 0 11 1;
#X connect 8 0 6 0;
#X connect 9 0 10 0;
#X connect 10 0 12 1;
#X connect 11 0 4 0;
#X connect 12 0 5 0;
#X connect 15 0 6 0;
#X connect 15 1 2 0;
#X connect 16 0 15 0;
#X connect 17 0 18 0;
#X connect 18 0 15 0;
#X connect 19 0 20 0;
#X connect 20 0 15 0;
#X connect 21 0 19 0;
#X restore 134 226 pd amp;
#X obj 167 120 vsl 19 50 0 1 0 0 empty empty empty 0 -9 0 12 #fcfcfc #000000 #000000 0 1;
#X msg 167 184 volume \$1;
#X obj 261 189 hsl 162 19 0 1 0 1 empty empty empty -2 -10 0 12 #fcfcfc #000000 #000000 8050 1;
#X msg 258 219 pan \$1;
#X msg 258 159 0.5;
#N canvas 888 150 330 308 click 0;
#X obj 36 75 noise~;
#X obj 105 70 inlet;
#X obj 36 153 *~, f 4;
#X obj 36 207 outlet~;
#N canvas 401 508 645 420 ad-envelope 0;
#X obj 168 277 line~;
#X obj 201 252 pack f f;
#X obj 201 227 f 1;
#X obj 137 114 t b f b;
#X obj 145 196 f 10;
#X obj 145 172 bng 19 250 50 0 empty empty empty 0 -10 0 12 #fcfcfc #000000 #000000;
#X obj 248 144 bng 19 250 50 0 empty empty empty 0 -10 0 12 #fcfcfc #000000 #000000;
#X obj 85 220 pack f f;
#X obj 85 196 f 0;
#X obj 147 27 inlet;
#X obj 137 90 f 1;
#X obj 224 114 loadbang;
#X obj 226 27 inlet;
#X obj 167 349 outlet~;
#X obj 224 90 route decay attack;
#X obj 60 27 r velocity;
#X obj 284 27 r attack;
#X msg 284 51 attack \$1;
#X obj 373 26 r decay;
#X msg 372 54 decay \$1;
#X obj 168 312 pow~ 3;
#X obj 432 259 r slope;
#X obj 248 168 f 2, f 4;
#X obj 85 172 delay 2;
#X connect 0 0 20 0;
#X connect 1 0 0 0;
#X connect 2 0 1 0;
#X connect 3 0 23 0;
#X connect 3 1 2 0;
#X connect 4 0 7 1;
#X connect 5 0 4 0;
#X connect 6 0 22 0;
#X connect 7 0 0 0;
#X connect 8 0 7 0;
#X connect 9 0 10 0;
#X connect 10 0 3 0;
#X connect 11 0 6 0;
#X connect 11 0 5 0;
#X connect 12 0 14 0;
#X connect 14 0 4 0;
#X connect 14 1 22 0;
#X connect 15 0 10 0;
#X connect 16 0 17 0;
#X connect 17 0 14 0;
#X connect 18 0 19 0;
#X connect 19 0 14 0;
#X connect 20 0 13 0;
#X connect 21 0 20 1;
#X connect 22 0 1 1;
#X connect 22 0 23 1;
#X connect 23 0 8 0;
#X restore 64 127 pd ad-envelope;
#X msg 176 81 attack 100;
#X connect 0 0 2 0;
#X connect 1 0 4 0;
#X connect 2 0 3 0;
#X connect 4 0 2 1;
#X connect 5 0 4 1;
#X restore 86 185 pd click;
#X obj 86 155 bng 19 250 50 0 empty empty empty 0 -10 0 12 #fcfcfc #000000 #000000;
#X obj 233 39 loadbang;
#X msg 167 88 1;
#X obj 94 47 metro 1000;
#X obj 95 22 bng 19 250 50 0 empty empty empty 0 -10 0 12 #fcfcfc #000000 #000000;
#X obj 51 108 receive click1;
#X connect 1 0 0 0;
#X connect 1 1 0 1;
#X connect 2 0 3 0;
#X connect 3 0 1 1;
#X connect 4 0 5 0;
#X connect 5 0 1 1;
#X connect 6 0 4 0;
#X connect 7 0 1 0;
#X connect 8 0 7 0;
#X connect 9 0 10 0;
#X connect 9 0 6 0;
#X connect 9 0 11 0;
#X connect 10 0 2 0;
#X connect 12 0 11 0;
#X connect 13 0 8 0;
