#N canvas 813 145 1106 534 12;
#X obj 199 285 inlet;
#X obj 120 356 *~, f 4;
#X obj 121 484 outlet~;
#X obj 122 459 hip~ 500;
#X obj 259 289 bng 19 250 50 0 empty empty empty 0 -10 0 12 #fcfcfc #000000 #000000;
#X obj 260 265 metro 3000;
#X obj 260 236 tgl 19 0 empty empty empty 0 -10 0 12 #fcfcfc #000000 #000000 0 1;
#X obj 39 95 mtof;
#X obj 39 119 sig~;
#X obj 39 219 +~;
#X obj 39 243 osc~;
#X obj 140 140 *~;
#X obj 140 164 osc~;
#X obj 140 188 *~;
#X floatatom 182 168 5 0 0 0 - - - 0;
#X text 544 456 thanks for the tips! https://www.rebeltech.org/2016/12/21/owl-pure-data-tutorial-4-fm-synthesis/;
#X obj 112 306 *~ 0.75;
#X obj 106 33 loadbang;
#X floatatom 43 33 5 0 0 0 - - - 0;
#X floatatom 193 52 5 0 0 0 - - - 0;
#X floatatom 252 131 5 0 0 0 - - - 0;
#X obj 205 323 ../util/adenv 200 2000;
#X obj 359 88 receive flowerMove0;
#X obj 577 328 line~;
#X obj 617 24 hsl 162 19 -1 1 0 0 empty empty empty -2 -10 0 12 #fcfcfc #000000 #000000 0 1;
#X obj 580 62 metro 50;
#X obj 587 131 t f f;
#X obj 584 101 f;
#X obj 598 169 -;
#X floatatom 615 207 5 0 0 0 - - - 0;
#X obj 506 28 tgl 19 0 empty empty empty 0 -10 0 12 #fcfcfc #000000 #000000 0 1;
#X obj 614 228 abs;
#X obj 580 361 env~;
#X obj 580 385 dbtorms;
#X obj 589 416 hsl 162 19 -1 1 0 0 empty empty empty -2 -10 0 12 #fcfcfc #000000 #000000 0 1;
#X obj 236 171 f 128;
#X obj 674 241 loadbang;
#X obj 674 265 f 0;
#X obj 540 0 loadbang;
#X msg 548 27 1;
#X obj 577 256 min 1;
#X obj 577 280 max 0;
#X msg 577 304 \$1 100;
#X obj 687 135 line;
#X obj 695 80 t b;
#X obj 733 102 metro 1000;
#X obj 815 35 tgl 19 0 empty empty empty 0 -10 0 12 #fcfcfc #000000 #000000 0 1;
#X obj 876 176 t b b;
#X obj 876 200 pipe 300;
#X msg 924 242 0 300;
#X msg 861 238 1 300;
#X obj 149 431 *~;
#X obj 284 398 min~;
#X obj 284 372 osc~ 10;
#X obj 284 447 +~ 0.5;
#X obj 283 422 *~ 0.5;
#X obj 179 81 f 5.42;
#X obj 40 68 f 55;
#X connect 0 0 21 0;
#X connect 1 0 51 0;
#X connect 3 0 2 0;
#X connect 4 0 21 0;
#X connect 5 0 4 0;
#X connect 6 0 5 0;
#X connect 7 0 8 0;
#X connect 8 0 9 0;
#X connect 8 0 11 0;
#X connect 9 0 10 0;
#X connect 10 0 16 0;
#X connect 11 0 12 0;
#X connect 12 0 13 0;
#X connect 13 0 9 1;
#X connect 14 0 13 1;
#X connect 16 0 1 0;
#X connect 17 0 35 0;
#X connect 17 0 56 0;
#X connect 17 0 57 0;
#X connect 18 0 57 0;
#X connect 19 0 56 0;
#X connect 20 0 35 0;
#X connect 22 0 29 0;
#X connect 23 0 32 0;
#X connect 23 0 1 1;
#X connect 24 0 27 1;
#X connect 25 0 27 0;
#X connect 26 0 28 1;
#X connect 26 1 28 0;
#X connect 27 0 26 0;
#X connect 28 0 29 0;
#X connect 29 0 31 0;
#X connect 30 0 25 0;
#X connect 31 0 40 0;
#X connect 32 0 33 0;
#X connect 33 0 34 0;
#X connect 35 0 13 1;
#X connect 36 0 37 0;
#X connect 37 0 42 0;
#X connect 40 0 41 0;
#X connect 41 0 42 0;
#X connect 42 0 23 0;
#X connect 43 0 27 1;
#X connect 45 0 47 0;
#X connect 46 0 45 0;
#X connect 47 0 48 0;
#X connect 47 1 49 0;
#X connect 48 0 50 0;
#X connect 49 0 43 0;
#X connect 50 0 43 0;
#X connect 51 0 3 0;
#X connect 52 0 55 0;
#X connect 53 0 52 0;
#X connect 54 0 51 1;
#X connect 55 0 54 0;
#X connect 56 0 11 1;
#X connect 57 0 7 0;
