#N canvas 1324 170 450 384 12;
#X obj 34 66 inlet trigger;
#X obj 33 164 phasor~;
#X obj 33 188 cos~;
#X obj 33 212 *~;
#X obj 33 236 *~ 0.1;
#X obj 32 273 hip~ 40;
#X obj 32 297 outlet~;
#X obj 100 143 del 3;
#X obj 100 167 ../util/adenv 15 100;
#X obj 34 115 ../util/expcurve 200;
#X obj 34 92 t b b f;
#X obj 33 140 *~;
#X connect 0 0 10 0;
#X connect 1 0 2 0;
#X connect 2 0 3 0;
#X connect 3 0 4 0;
#X connect 4 0 5 0;
#X connect 5 0 6 0;
#X connect 7 0 8 0;
#X connect 8 0 3 1;
#X connect 9 0 11 0;
#X connect 10 0 9 0;
#X connect 10 1 7 0;
#X connect 10 2 11 1;
#X connect 11 0 1 0;
