#N canvas 160 160 450 300 12;
#X obj 59 25 inlet numbers < 200;
#X obj 61 53 sel 29 37 47 67 89 113 157 197;
#X obj 238 133 inlet probability;
#X obj 137 130 random 100;
#X obj 141 171 moses 50;
#X msg 142 204 bang;
#X obj 142 228 outlet bangs;
#X floatatom 13 51 5 0 0 0 - - - 0;
#X floatatom 97 152 5 0 0 0 - - - 0;
#X connect 0 0 1 0;
#X connect 0 0 7 0;
#X connect 1 0 3 0;
#X connect 1 1 3 0;
#X connect 1 2 3 0;
#X connect 1 3 3 0;
#X connect 1 4 3 0;
#X connect 1 5 3 0;
#X connect 1 6 3 0;
#X connect 1 7 3 0;
#X connect 2 0 4 1;
#X connect 3 0 4 0;
#X connect 3 0 8 0;
#X connect 4 0 5 0;
#X connect 5 0 6 0;
