#N canvas 721 250 567 441 12;
#X obj 187 140 random 4;
#X obj 187 164 select 0 1 2 3;
#X obj 212 289 *~ 0.25;
#X obj 212 313 dac~;
#X obj 179 65 tgl 19 0 empty empty empty 0 -10 0 12 #fcfcfc #000000 #000000 0 1;
#X obj 187 92 ../util/cycle 200;
#X obj 101 241 tweet 3500;
#X obj 187 116 tweetpattern 80;
#X obj 280 240 tweet 800;
#X obj 279 199 tweet 700;
#X obj 82 198 tweet 900;
#X connect 0 0 1 0;
#X connect 1 0 10 0;
#X connect 1 1 6 0;
#X connect 1 2 8 0;
#X connect 1 3 9 0;
#X connect 2 0 3 0;
#X connect 2 0 3 1;
#X connect 4 0 5 0;
#X connect 5 0 7 0;
#X connect 6 0 2 0;
#X connect 7 0 0 0;
#X connect 8 0 2 0;
#X connect 9 0 2 0;
#X connect 10 0 2 0;
